
<svg version="1.1" id="Layer_1" xmlns="http://www.w3.org/2000/svg" xmlns:xlink="http://www.w3.org/1999/xlink" x="0px" y="0px"
	 width="100%" viewBox="0 0 142 409" enable-background="new 0 0 142 409" xml:space="preserve">
<path  opacity="0.000000" stroke="none" 
	d="
M143.000000,231.000000 
	C143.000000,290.619110 143.000000,350.238190 143.000000,409.928650 
	C95.752060,409.928650 48.503983,409.928650 1.000000,409.928650 
	C1.000000,334.312622 1.000000,258.624969 1.468657,182.468658 
	C18.521170,182.000000 35.105022,182.000000 52.126225,182.000000 
	C41.551109,215.553497 31.165606,248.505402 20.610575,281.995178 
	C50.615608,281.995178 79.730362,282.014832 108.844704,281.915161 
	C109.883789,281.911591 111.316261,280.977722 111.894257,280.056396 
	C117.620781,270.928101 123.113609,261.652924 128.859528,252.537155 
	C133.438232,245.273148 138.276794,238.172928 143.000000,231.000000 
M69.502281,348.997284 
	C76.093796,338.223328 82.685303,327.449402 89.689995,316.000122 
	C80.726051,316.000122 72.901413,316.128754 65.084801,315.934387 
	C62.121662,315.860718 60.803349,316.762085 59.891331,319.691956 
	C55.870358,332.609497 51.521111,345.424500 47.337463,358.291840 
	C42.222946,374.022125 37.155075,389.767548 32.067036,405.506439 
	C32.615742,405.820587 33.164444,406.134735 33.713150,406.448883 
	C46.083004,387.881927 57.189648,368.489166 69.502281,348.997284 
z"/>
<path opacity="0.000000" stroke="none" 
	d="
M0.999999,179.000000 
	C1.000000,119.714134 1.000000,60.428276 1.000000,1.071207 
	C48.247902,1.071207 95.495934,1.071207 143.000000,1.071207 
	C143.000000,76.354034 143.000000,151.708359 142.531342,227.531342 
	C125.453499,228.000000 108.844307,228.000000 91.907265,228.000000 
	C92.130257,226.325729 92.114761,225.151215 92.453415,224.089676 
	C99.530815,201.904816 106.714157,179.753540 113.726105,157.548111 
	C116.609886,148.415771 119.141609,139.172241 121.852249,129.731079 
	C121.684959,129.118378 121.402267,129.012939 120.557327,129.098236 
	C92.098175,129.019974 64.104431,128.966537 36.111629,129.103485 
	C34.352276,129.112106 31.821928,130.121399 30.967209,131.488525 
	C23.781122,142.982437 16.989088,154.721848 9.887548,166.269958 
	C7.181216,170.670837 3.977198,174.765686 0.999999,179.000000 
M59.918129,83.388824 
	C57.818012,86.961250 55.717896,90.533684 53.098160,94.990013 
	C62.861134,94.990013 71.450829,95.076164 80.033737,94.874176 
	C81.036331,94.850586 82.564392,93.411774 82.900948,92.333260 
	C89.732475,70.441597 96.530075,48.537872 103.076752,26.559790 
	C104.834709,20.658100 108.270073,14.950554 106.516640,7.707823 
	C105.450218,8.633996 104.573494,9.094456 104.136467,9.819829 
	C96.812767,21.975492 89.589684,34.191856 82.250130,46.337864 
	C74.913399,58.479214 67.472382,70.557549 59.918129,83.388824 
M107.409988,7.997111 
	C107.469078,7.798805 107.528160,7.600499 107.587250,7.402191 
	C107.393204,7.473612 107.199165,7.545034 107.409988,7.997111 
z"/>
<path fill="#FFD516" opacity="1.000000" stroke="none" 
	d="
M0.999999,179.375000 
	C3.977198,174.765686 7.181216,170.670837 9.887548,166.269958 
	C16.989088,154.721848 23.781122,142.982437 30.967209,131.488525 
	C31.821928,130.121399 34.352276,129.112106 36.111629,129.103485 
	C64.104431,128.966537 92.098175,129.019974 120.648727,129.273071 
	C121.368149,129.734055 121.577393,129.888412 121.833473,129.979294 
	C119.141609,139.172241 116.609886,148.415771 113.726105,157.548111 
	C106.714157,179.753540 99.530815,201.904816 92.453415,224.089676 
	C92.114761,225.151215 92.130257,226.325729 91.907265,228.000000 
	C108.844307,228.000000 125.453499,228.000000 142.531342,228.000000 
	C143.000000,228.750000 143.000000,229.500000 143.000000,230.625000 
	C138.276794,238.172928 133.438232,245.273148 128.859528,252.537155 
	C123.113609,261.652924 117.620781,270.928101 111.894257,280.056396 
	C111.316261,280.977722 109.883789,281.911591 108.844704,281.915161 
	C79.730362,282.014832 50.615608,281.995178 20.610575,281.995178 
	C31.165606,248.505402 41.551109,215.553497 52.126225,182.000000 
	C35.105022,182.000000 18.521170,182.000000 1.468657,182.000000 
	C1.000000,181.250000 1.000000,180.500000 0.999999,179.375000 
z"/>
<path fill="#FFD516" opacity="1.000000" stroke="none" 
	d="
M69.292419,349.303833 
	C57.189648,368.489166 46.083004,387.881927 33.713150,406.448883 
	C33.164444,406.134735 32.615742,405.820587 32.067036,405.506439 
	C37.155075,389.767548 42.222946,374.022125 47.337463,358.291840 
	C51.521111,345.424500 55.870358,332.609497 59.891331,319.691956 
	C60.803349,316.762085 62.121662,315.860718 65.084801,315.934387 
	C72.901413,316.128754 80.726051,316.000122 89.689995,316.000122 
	C82.685303,327.449402 76.093796,338.223328 69.292419,349.303833 
z"/>
<path fill="#FFD516" opacity="1.000000" stroke="none" 
	d="
M59.997604,83.026169 
	C67.472382,70.557549 74.913399,58.479214 82.250130,46.337864 
	C89.589684,34.191856 96.812767,21.975492 104.136467,9.819829 
	C104.573494,9.094456 105.450218,8.633996 106.516640,7.707823 
	C108.270073,14.950554 104.834709,20.658100 103.076752,26.559790 
	C96.530075,48.537872 89.732475,70.441597 82.900948,92.333260 
	C82.564392,93.411774 81.036331,94.850586 80.033737,94.874176 
	C71.450829,95.076164 62.861134,94.990013 53.098160,94.990013 
	C55.717896,90.533684 57.818012,86.961250 59.997604,83.026169 
z"/>
<path fill="#FFD516" opacity="1.000000" stroke="none" 
	d="
M107.207550,7.806784 
	C107.199165,7.545034 107.393204,7.473612 107.587250,7.402192 
	C107.528160,7.600499 107.469078,7.798805 107.207550,7.806784 
z"/>
<path fill="#FFD516" opacity="1.000000" stroke="none" 
	d="
M121.852249,129.731079 
	C121.577393,129.888412 121.368149,129.734055 121.114349,129.341370 
	C121.402267,129.012939 121.684959,129.118378 121.852249,129.731079 
z"/>
</svg>