<svg version="1.1" id="Layer_1" xmlns="http://www.w3.org/2000/svg" xmlns:xlink="http://www.w3.org/1999/xlink" x="0px" y="0px"
	 width="100%" viewBox="0 0 914 409" enable-background="new 0 0 914 409" xml:space="preserve">
<path  opacity="0.000000" stroke="none" 
	d="
M0.999997,179.000000 
	C1.000000,119.687454 1.000000,60.374908 1.000002,1.060491 
	C305.666656,1.058618 610.333313,1.058618 915.000000,1.058618 
	C915.000000,43.435570 915.000000,85.753899 914.531372,128.536118 
	C903.901123,129.000000 893.737488,129.117188 883.579285,128.933701 
	C880.219055,128.873001 878.372986,129.662491 876.874329,133.062637 
	C869.648743,149.455719 862.054932,165.687012 854.520691,181.942825 
	C853.641663,183.839478 852.324341,185.533005 850.788269,187.997696 
	C841.392944,167.659241 832.471375,148.346390 823.687744,129.332138 
	C811.602417,129.332138 799.892090,129.332138 787.457275,129.332138 
	C791.317200,136.565094 794.959778,143.198090 798.426270,149.921844 
	C810.067322,172.501068 821.683350,195.093475 833.184753,217.743866 
	C834.242432,219.826736 834.903870,222.354706 834.922363,224.682541 
	C835.063660,242.505981 835.000000,260.331055 835.000000,278.155609 
	C835.000000,279.734680 835.000000,281.313782 835.000000,282.618805 
	C846.130005,282.618805 856.529114,282.618805 867.000000,282.618805 
	C867.000000,267.079590 867.335938,251.911301 866.879456,236.766922 
	C866.585449,227.013168 868.556946,218.507782 873.359375,209.737244 
	C885.557800,187.459641 896.492126,164.491745 908.072876,141.872070 
	C910.022522,138.064041 912.673218,134.614944 915.000000,131.000000 
	C915.000000,223.971970 915.000000,316.943939 915.000000,409.957947 
	C610.453186,409.957947 305.906342,409.957947 1.000000,409.957947 
	C1.000000,334.309631 1.000000,258.618713 1.468657,182.463882 
	C18.526163,182.000000 35.115013,182.000000 52.130779,182.000000 
	C41.555389,215.548813 31.183863,248.450897 20.785173,281.439148 
	C21.696444,281.700806 22.155640,281.947601 22.615091,281.948059 
	C51.111252,281.977844 79.607697,282.032654 108.102875,281.870148 
	C109.578781,281.861755 111.545105,280.303497 112.433617,278.920929 
	C118.615059,269.302307 124.609001,259.562103 130.588135,249.814911 
	C134.885895,242.808716 139.067734,235.731415 143.701813,228.019241 
	C125.550621,228.019241 108.567604,228.019241 91.309929,228.019241 
	C101.764915,195.046524 112.129372,162.359344 122.437943,129.848389 
	C121.385727,129.301315 121.238014,129.157349 121.089996,129.157059 
	C92.265991,129.098862 63.441875,129.020447 34.618233,129.104553 
	C33.359074,129.108231 31.623142,130.309875 30.921782,131.452286 
	C23.828039,143.007034 16.990170,154.718964 9.887918,166.268356 
	C7.181339,170.669693 3.977313,174.765137 0.999997,179.000000 
M33.161034,407.241364 
	C34.464417,405.382385 35.865486,403.583710 37.056286,401.655212 
	C51.117302,378.882843 65.155594,356.096405 79.178375,333.300446 
	C82.556213,327.809296 85.855194,322.269653 89.645172,316.000092 
	C80.855721,316.000092 73.076324,316.124878 65.304367,315.938782 
	C62.186481,315.864136 60.826473,316.764557 59.833061,319.954773 
	C54.748520,336.282928 49.243511,352.479553 43.987499,368.755127 
	C39.886215,381.454956 35.934139,394.202972 31.386322,407.178467 
	C31.340221,407.620697 31.294121,408.062958 31.248016,408.505188 
	C31.706940,408.224487 32.165863,407.943817 33.161034,407.241364 
M411.537720,282.916473 
	C411.636261,282.616638 411.734802,282.316803 411.971466,281.218536 
	C411.657349,280.480621 411.216339,279.770508 411.047485,279.000732 
	C405.333374,252.949310 399.769806,226.864166 393.916595,200.844147 
	C388.537140,176.930161 382.849854,153.085403 377.282257,129.141632 
	C357.374023,129.141632 337.407867,129.141632 317.047363,129.141632 
	C305.531281,180.296860 294.026825,231.400345 282.464264,282.761841 
	C293.981750,282.761841 304.417114,282.761841 314.901001,282.761841 
	C316.633209,274.628204 318.218750,266.687622 320.117706,258.822693 
	C320.389954,257.695190 322.167633,256.132996 323.262451,256.121796 
	C340.066498,255.949829 356.872803,256.001953 373.592163,256.001953 
	C375.447174,264.070587 377.451813,271.732361 378.867493,279.501465 
	C379.387390,282.354706 380.453186,283.066376 383.029602,283.029938 
	C392.356537,282.897919 401.685242,282.888824 411.537720,282.916473 
M466.267242,282.991943 
	C466.844818,281.553070 467.910187,280.118896 467.924011,278.674652 
	C468.052399,265.236023 468.000000,251.795685 468.000000,238.000000 
	C477.269226,238.000000 486.063049,238.112732 494.852051,237.955795 
	C499.768494,237.868042 504.758759,237.786148 509.573944,236.916443 
	C525.355774,234.066025 537.540588,225.547882 543.476318,210.655136 
	C550.057129,194.143936 550.153015,176.743301 545.141418,159.648712 
	C539.058655,138.900421 521.283264,129.939590 501.690704,129.167816 
	C482.230347,128.401245 462.716217,129.000000 443.225647,129.000000 
	C440.942688,129.000000 438.659729,129.000000 436.224274,129.000000 
	C436.224274,180.507202 436.224274,231.556046 436.224274,282.999237 
	C446.063507,282.999237 455.683716,282.999237 466.267242,282.991943 
M659.486938,233.069016 
	C670.751587,228.211975 677.831299,219.634903 682.319824,208.370621 
	C687.192749,196.141296 686.592834,183.383743 685.733032,170.859009 
	C685.021606,160.496353 681.206726,150.698883 673.485474,142.939041 
	C664.117188,133.523926 652.387024,129.478455 639.626343,129.143967 
	C619.143188,128.607056 598.635559,128.996994 578.138306,129.007324 
	C576.859497,129.007965 575.580688,129.113220 574.275269,129.170990 
	C574.275269,180.584183 574.275269,231.645828 574.275269,282.704712 
	C584.952881,282.704712 595.352600,282.704712 606.187988,282.704712 
	C606.187988,267.676910 606.187988,252.939743 606.187988,238.249161 
	C624.070374,236.853638 641.988098,240.899994 659.486938,233.069016 
M225.046158,216.630432 
	C237.966660,197.598434 250.892471,178.570023 263.788879,159.521729 
	C264.324310,158.730896 264.914917,157.757050 264.922913,156.863480 
	C265.005646,147.613297 264.973785,138.362076 264.973785,129.377762 
	C230.550735,129.377762 196.817215,129.377762 163.222137,129.377762 
	C163.222137,138.706512 163.222137,147.656387 163.222137,156.970596 
	C184.544800,156.970596 205.649963,156.970596 227.542801,156.970596 
	C226.781235,158.981323 226.484985,160.569031 225.662155,161.806671 
	C219.836472,170.569336 213.873199,179.240341 208.009674,187.978058 
	C195.469925,206.664627 182.940872,225.358490 170.463028,244.086395 
	C167.868088,247.981094 163.885345,251.842529 163.383789,256.057434 
	C162.297211,265.188629 163.049026,274.538574 163.049026,283.664886 
	C197.363525,283.664886 231.096451,283.664886 264.643768,283.664886 
	C264.643768,273.923798 264.643768,264.520782 264.643768,254.720703 
	C243.242325,254.720703 222.195847,254.720703 199.816986,254.720703 
	C208.596130,241.674240 216.775070,229.519730 225.046158,216.630432 
M744.000000,142.508163 
	C744.000000,138.078430 744.000000,133.648682 744.000000,129.316742 
	C732.994080,129.316742 722.598206,129.316742 712.297607,129.316742 
	C712.297607,180.673584 712.297607,231.713150 712.297607,282.704407 
	C741.980652,282.704407 771.365173,282.704407 800.690186,282.704407 
	C800.690186,273.342560 800.690186,264.279419 800.690186,254.795837 
	C781.656433,254.795837 762.929077,254.795837 744.000000,254.795837 
	C744.000000,217.413483 744.000000,180.459167 744.000000,142.508163 
M88.482712,74.018425 
	C94.462112,54.719608 100.501305,35.438866 106.346245,16.099417 
	C107.088318,13.644077 106.813766,10.881486 107.010208,8.261241 
	C106.491104,8.118385 105.972000,7.975531 105.452896,7.832675 
	C88.107285,36.590393 70.761665,65.348114 52.880676,94.993446 
	C62.831768,94.993446 71.316406,95.078423 79.794815,94.887138 
	C80.868713,94.862915 82.526588,93.591553 82.864319,92.555763 
	C84.782364,86.673203 86.381248,80.686569 88.482712,74.018425 
M107.002831,7.588729 
	C107.196365,7.661263 107.389893,7.733797 107.583427,7.806333 
	C107.525383,7.608199 107.467339,7.410066 107.002831,7.588729 
z"/>
<path fill="#FFD516" opacity="1.000000" stroke="none" 
	d="
M0.999997,179.375000 
	C3.977313,174.765137 7.181339,170.669693 9.887918,166.268356 
	C16.990170,154.718964 23.828039,143.007034 30.921782,131.452286 
	C31.623142,130.309875 33.359074,129.108231 34.618233,129.104553 
	C63.441875,129.020447 92.265991,129.098862 121.089996,129.157059 
	C121.238014,129.157349 121.385727,129.301315 122.437943,129.848389 
	C112.129372,162.359344 101.764915,195.046524 91.309929,228.019241 
	C108.567604,228.019241 125.550621,228.019241 143.701813,228.019241 
	C139.067734,235.731415 134.885895,242.808716 130.588135,249.814911 
	C124.609001,259.562103 118.615059,269.302307 112.433617,278.920929 
	C111.545105,280.303497 109.578781,281.861755 108.102875,281.870148 
	C79.607697,282.032654 51.111252,281.977844 22.615091,281.948059 
	C22.155640,281.947601 21.696444,281.700806 20.785173,281.439148 
	C31.183863,248.450897 41.555389,215.548813 52.130779,182.000000 
	C35.115013,182.000000 18.526163,182.000000 1.468657,182.000000 
	C1.000000,181.250000 1.000000,180.500000 0.999997,179.375000 
z"/>
<path fill="#3A3129" opacity="1.000000" stroke="none" 
	d="
M915.000000,130.666672 
	C912.673218,134.614944 910.022522,138.064041 908.072876,141.872070 
	C896.492126,164.491745 885.557800,187.459641 873.359375,209.737244 
	C868.556946,218.507782 866.585449,227.013168 866.879456,236.766922 
	C867.335938,251.911301 867.000000,267.079590 867.000000,282.618805 
	C856.529114,282.618805 846.130005,282.618805 835.000000,282.618805 
	C835.000000,281.313782 835.000000,279.734680 835.000000,278.155609 
	C835.000000,260.331055 835.063660,242.505981 834.922363,224.682541 
	C834.903870,222.354706 834.242432,219.826736 833.184753,217.743866 
	C821.683350,195.093475 810.067322,172.501068 798.426270,149.921844 
	C794.959778,143.198090 791.317200,136.565094 787.457275,129.332138 
	C799.892090,129.332138 811.602417,129.332138 823.687744,129.332138 
	C832.471375,148.346390 841.392944,167.659241 850.788269,187.997696 
	C852.324341,185.533005 853.641663,183.839478 854.520691,181.942825 
	C862.054932,165.687012 869.648743,149.455719 876.874329,133.062637 
	C878.372986,129.662491 880.219055,128.873001 883.579285,128.933701 
	C893.737488,129.117188 903.901123,129.000000 914.531372,129.000000 
	C915.000000,129.444443 915.000000,129.888901 915.000000,130.666672 
z"/>
<path fill="#3A3129" opacity="1.000000" stroke="none" 
	d="
M411.013275,282.833344 
	C401.685242,282.888824 392.356537,282.897919 383.029602,283.029938 
	C380.453186,283.066376 379.387390,282.354706 378.867493,279.501465 
	C377.451813,271.732361 375.447174,264.070587 373.592163,256.001953 
	C356.872803,256.001953 340.066498,255.949829 323.262451,256.121796 
	C322.167633,256.132996 320.389954,257.695190 320.117706,258.822693 
	C318.218750,266.687622 316.633209,274.628204 314.901001,282.761841 
	C304.417114,282.761841 293.981750,282.761841 282.464264,282.761841 
	C294.026825,231.400345 305.531281,180.296860 317.047363,129.141632 
	C337.407867,129.141632 357.374023,129.141632 377.282257,129.141632 
	C382.849854,153.085403 388.537140,176.930161 393.916595,200.844147 
	C399.769806,226.864166 405.333374,252.949310 411.047485,279.000732 
	C411.216339,279.770508 411.657349,280.480621 411.726013,281.709686 
	C411.260986,282.364502 411.105225,282.575348 411.013275,282.833344 
M358.000061,182.515594 
	C356.983917,177.274658 356.073242,172.010590 354.930450,166.797424 
	C352.283875,154.724701 352.238220,154.731155 343.114441,155.061874 
	C342.812836,155.072830 342.519562,155.312286 342.312988,155.404694 
	C337.184601,179.471161 332.069580,203.475082 326.894623,227.760208 
	C340.580200,227.760208 354.011841,227.760208 367.508972,227.760208 
	C367.011841,225.312103 366.530914,222.812851 365.994690,220.325531 
	C363.339569,208.009766 360.669922,195.697159 358.000061,182.515594 
z"/>
<path fill="#3A3129" opacity="1.000000" stroke="none" 
	d="
M465.785583,282.995605 
	C455.683716,282.999237 446.063507,282.999237 436.224274,282.999237 
	C436.224274,231.556046 436.224274,180.507202 436.224274,129.000000 
	C438.659729,129.000000 440.942688,129.000000 443.225647,129.000000 
	C462.716217,129.000000 482.230347,128.401245 501.690704,129.167816 
	C521.283264,129.939590 539.058655,138.900421 545.141418,159.648712 
	C550.153015,176.743301 550.057129,194.143936 543.476318,210.655136 
	C537.540588,225.547882 525.355774,234.066025 509.573944,236.916443 
	C504.758759,237.786148 499.768494,237.868042 494.852051,237.955795 
	C486.063049,238.112732 477.269226,238.000000 468.000000,238.000000 
	C468.000000,251.795685 468.052399,265.236023 467.924011,278.674652 
	C467.910187,280.118896 466.844818,281.553070 465.785583,282.995605 
M515.068909,176.347824 
	C515.110779,166.382736 509.418060,158.563202 499.895538,157.245178 
	C489.527710,155.810135 478.924286,156.077194 468.370758,155.599808 
	C468.370758,174.600311 468.370758,192.751328 468.370758,210.999893 
	C477.049774,210.999893 485.371857,211.293915 493.662994,210.913361 
	C501.248413,210.565186 508.036102,208.019943 511.777100,200.684433 
	C515.563293,193.260498 516.755493,185.343628 515.068909,176.347824 
z"/>
<path fill="#3A3129" opacity="1.000000" stroke="none" 
	d="
M659.196411,233.337128 
	C641.988098,240.899994 624.070374,236.853638 606.187988,238.249161 
	C606.187988,252.939743 606.187988,267.676910 606.187988,282.704712 
	C595.352600,282.704712 584.952881,282.704712 574.275269,282.704712 
	C574.275269,231.645828 574.275269,180.584183 574.275269,129.170990 
	C575.580688,129.113220 576.859497,129.007965 578.138306,129.007324 
	C598.635559,128.996994 619.143188,128.607056 639.626343,129.143967 
	C652.387024,129.478455 664.117188,133.523926 673.485474,142.939041 
	C681.206726,150.698883 685.021606,160.496353 685.733032,170.859009 
	C686.592834,183.383743 687.192749,196.141296 682.319824,208.370621 
	C677.831299,219.634903 670.751587,228.211975 659.196411,233.337128 
M643.184143,159.022766 
	C631.123108,154.592407 618.646912,156.395355 606.265015,155.975845 
	C606.265015,174.606659 606.265015,192.647644 606.265015,210.997711 
	C615.311340,210.997711 624.118225,211.386902 632.873596,210.882217 
	C640.755798,210.427841 647.592957,206.795456 650.713806,199.312042 
	C654.811401,189.486435 655.517822,178.977966 651.720581,168.897522 
	C650.348938,165.256226 646.568604,162.522232 643.184143,159.022766 
z"/>
<path fill="#3A3129" opacity="1.000000" stroke="none" 
	d="
M225.000076,216.997833 
	C216.775070,229.519730 208.596130,241.674240 199.816986,254.720703 
	C222.195847,254.720703 243.242325,254.720703 264.643768,254.720703 
	C264.643768,264.520782 264.643768,273.923798 264.643768,283.664886 
	C231.096451,283.664886 197.363525,283.664886 163.049026,283.664886 
	C163.049026,274.538574 162.297211,265.188629 163.383789,256.057434 
	C163.885345,251.842529 167.868088,247.981094 170.463028,244.086395 
	C182.940872,225.358490 195.469925,206.664627 208.009674,187.978058 
	C213.873199,179.240341 219.836472,170.569336 225.662155,161.806671 
	C226.484985,160.569031 226.781235,158.981323 227.542801,156.970596 
	C205.649963,156.970596 184.544800,156.970596 163.222137,156.970596 
	C163.222137,147.656387 163.222137,138.706512 163.222137,129.377762 
	C196.817215,129.377762 230.550735,129.377762 264.973785,129.377762 
	C264.973785,138.362076 265.005646,147.613297 264.922913,156.863480 
	C264.914917,157.757050 264.324310,158.730896 263.788879,159.521729 
	C250.892471,178.570023 237.966660,197.598434 225.000076,216.997833 
z"/>
<path fill="#3A3129" opacity="1.000000" stroke="none" 
	d="
M744.000000,143.006500 
	C744.000000,180.459167 744.000000,217.413483 744.000000,254.795837 
	C762.929077,254.795837 781.656433,254.795837 800.690186,254.795837 
	C800.690186,264.279419 800.690186,273.342560 800.690186,282.704407 
	C771.365173,282.704407 741.980652,282.704407 712.297607,282.704407 
	C712.297607,231.713150 712.297607,180.673584 712.297607,129.316742 
	C722.598206,129.316742 732.994080,129.316742 744.000000,129.316742 
	C744.000000,133.648682 744.000000,138.078430 744.000000,143.006500 
z"/>
<path fill="#FFD516" opacity="1.000000" stroke="none" 
	d="
M88.285721,74.376892 
	C86.381248,80.686569 84.782364,86.673203 82.864319,92.555763 
	C82.526588,93.591553 80.868713,94.862915 79.794815,94.887138 
	C71.316406,95.078423 62.831768,94.993446 52.880676,94.993446 
	C70.761665,65.348114 88.107285,36.590393 105.452896,7.832675 
	C105.972000,7.975531 106.491104,8.118385 107.010208,8.261241 
	C106.813766,10.881486 107.088318,13.644077 106.346245,16.099417 
	C100.501305,35.438866 94.462112,54.719608 88.285721,74.376892 
z"/>
<path fill="#FFD516" opacity="1.000000" stroke="none" 
	d="
M31.915762,406.929596 
	C35.934139,394.202972 39.886215,381.454956 43.987499,368.755127 
	C49.243511,352.479553 54.748520,336.282928 59.833061,319.954773 
	C60.826473,316.764557 62.186481,315.864136 65.304367,315.938782 
	C73.076324,316.124878 80.855721,316.000092 89.645172,316.000092 
	C85.855194,322.269653 82.556213,327.809296 79.178375,333.300446 
	C65.155594,356.096405 51.117302,378.882843 37.056286,401.655212 
	C35.865486,403.583710 34.464417,405.382385 32.729599,407.255402 
	C32.170696,407.156158 32.043232,407.042877 31.915762,406.929596 
z"/>
<path fill="#FFD516" opacity="1.000000" stroke="none" 
	d="
M32.461472,407.466309 
	C32.165863,407.943817 31.706940,408.224487 31.248018,408.505188 
	C31.294121,408.062958 31.340221,407.620697 31.651043,407.054016 
	C32.043232,407.042877 32.170696,407.156158 32.461472,407.466309 
z"/>
<path fill="#3A3129" opacity="1.000000" stroke="none" 
	d="
M411.275513,282.874908 
	C411.105225,282.575348 411.260986,282.364502 411.656982,282.108887 
	C411.734802,282.316803 411.636261,282.616638 411.275513,282.874908 
z"/>
<path fill="#FFD516" opacity="1.000000" stroke="none" 
	d="
M107.206062,7.400331 
	C107.467339,7.410066 107.525383,7.608199 107.583427,7.806332 
	C107.389893,7.733797 107.196365,7.661263 107.206062,7.400331 
z"/>
<path opacity="0.000000" stroke="none" 
	d="
M358.002747,182.949509 
	C360.669922,195.697159 363.339569,208.009766 365.994690,220.325531 
	C366.530914,222.812851 367.011841,225.312103 367.508972,227.760208 
	C354.011841,227.760208 340.580200,227.760208 326.894623,227.760208 
	C332.069580,203.475082 337.184601,179.471161 342.312988,155.404694 
	C342.519562,155.312286 342.812836,155.072830 343.114441,155.061874 
	C352.238220,154.731155 352.283875,154.724701 354.930450,166.797424 
	C356.073242,172.010590 356.983917,177.274658 358.002747,182.949509 
z"/>
<path opacity="0.000000" stroke="none" 
	d="
M515.329834,176.715225 
	C516.755493,185.343628 515.563293,193.260498 511.777100,200.684433 
	C508.036102,208.019943 501.248413,210.565186 493.662994,210.913361 
	C485.371857,211.293915 477.049774,210.999893 468.370758,210.999893 
	C468.370758,192.751328 468.370758,174.600311 468.370758,155.599808 
	C478.924286,156.077194 489.527710,155.810135 499.895538,157.245178 
	C509.418060,158.563202 515.110779,166.382736 515.329834,176.715225 
z"/>
<path opacity="0.000000" stroke="none" 
	d="
M643.535767,159.198486 
	C646.568604,162.522232 650.348938,165.256226 651.720581,168.897522 
	C655.517822,178.977966 654.811401,189.486435 650.713806,199.312042 
	C647.592957,206.795456 640.755798,210.427841 632.873596,210.882217 
	C624.118225,211.386902 615.311340,210.997711 606.265015,210.997711 
	C606.265015,192.647644 606.265015,174.606659 606.265015,155.975845 
	C618.646912,156.395355 631.123108,154.592407 643.535767,159.198486 
z"/>
</svg>